<?xml version="1.0" encoding="UTF-8" standalone="no"?>
<!-- Generator: Adobe Illustrator 16.0.0, SVG Export Plug-In . SVG Version: 6.00 Build 0)  -->

<svg
   version="1.1"
   id="Layer_1"
   x="0px"
   y="0px"
   width="150"
   height="150"
   viewBox="0 0 150 150"
   enable-background="new 0 0 113.976 46.674"
   xml:space="preserve"
   sodipodi:docname="kasiopea.svg"
   inkscape:version="1.3.2 (091e20ef0f, 2023-11-25, custom)"
   xmlns:inkscape="http://www.inkscape.org/namespaces/inkscape"
   xmlns:sodipodi="http://sodipodi.sourceforge.net/DTD/sodipodi-0.dtd"
   xmlns="http://www.w3.org/2000/svg"
   xmlns:svg="http://www.w3.org/2000/svg"><defs
   id="defs9" /><sodipodi:namedview
   id="namedview9"
   pagecolor="#ffffff"
   bordercolor="#000000"
   borderopacity="0.25"
   inkscape:showpageshadow="2"
   inkscape:pageopacity="0.0"
   inkscape:pagecheckerboard="0"
   inkscape:deskcolor="#d1d1d1"
   inkscape:zoom="2.2992616"
   inkscape:cx="-40.447769"
   inkscape:cy="139.17512"
   inkscape:window-width="1920"
   inkscape:window-height="1080"
   inkscape:window-x="0"
   inkscape:window-y="0"
   inkscape:window-maximized="1"
   inkscape:current-layer="Layer_1" />
<rect
   style="fill:#331c47;fill-opacity:1;stroke:none;stroke-width:10.6101"
   id="rect9"
   width="150"
   height="150"
   x="0"
   y="0" /><path
   fill="#ec1d56"
   d="m 126.47348,61.290029 0.99715,-26.831404 c 3.38983,-1.197207 5.82952,-4.440374 5.82952,-8.253519 0.003,-4.828657 -3.90202,-8.756297 -8.70222,-8.756297 -4.80019,0 -8.70468,3.92764 -8.70468,8.756297 0,3.743454 2.35308,6.939328 5.64641,8.188806 l -0.99467,26.831403 c -2.28875,0.808925 -4.1445,2.546247 -5.10454,4.768921 L 92.295584,61.382122 c 0.0048,-0.10703 0.01725,-0.214054 0.01725,-0.32108 0,-4.826168 -3.904483,-8.756296 -8.704695,-8.756296 -4.800188,0 -8.70468,3.927638 -8.70468,8.756296 0,2.13556 0.767043,4.094402 2.0339,5.615181 l -8.80613,11.753043 c -1.014474,-0.415659 -2.120499,-0.652118 -3.280959,-0.652118 -3.684273,0 -6.834094,2.319751 -8.100949,5.582827 L 32.81521,81.5007 c -0.452801,-4.40553 -4.16182,-7.850304 -8.6552,-7.850304 -4.800196,-0.0025 -8.702211,3.925151 -8.702211,8.751319 0,4.826167 3.902015,8.753812 8.704686,8.753812 2.966719,0 5.591981,-1.503353 7.16318,-3.793234 l 25.290107,1.963816 c 1.165408,3.459707 4.414201,5.961144 8.239512,5.961144 4.800196,0 8.704686,-3.927632 8.704686,-8.756295 0,-1.475978 -0.3662,-2.864831 -1.009526,-4.086934 l 9.568229,-12.771047 c 0.484963,0.08463 0.982305,0.139382 1.494491,0.139382 2.518867,0 4.785353,-1.09018 6.373873,-2.815056 l 25.104523,5.002885 c 1.08127,3.601582 4.40183,6.232457 8.33108,6.232457 4.7977,0 8.7022,-3.927643 8.7022,-8.753811 -0.005,-3.748432 -2.35555,-6.939328 -5.65136,-8.188805 z M 24.162485,85.194371 c -1.53161,0 -2.776196,-1.251961 -2.776196,-2.792656 0,-1.540683 1.244586,-2.792655 2.776196,-2.792655 1.529136,0 2.773722,1.251972 2.773722,2.792655 0,1.540695 -1.244586,2.792656 -2.773722,2.792656 z m 40.690324,4.12676 c -1.529135,0 -2.773721,-1.25196 -2.773721,-2.792655 0,-1.540695 1.244588,-2.792654 2.773721,-2.792654 1.53161,0 2.776198,1.251959 2.776198,2.792654 0,1.540695 -1.244588,2.792655 -2.776198,2.792655 z M 83.608216,63.84872 c -1.531613,0 -2.776195,-1.251966 -2.776195,-2.792657 0,-1.540689 1.244582,-2.792656 2.776195,-2.792656 1.529133,0 2.773726,1.251967 2.773726,2.792656 0,1.540691 -1.244593,2.792657 -2.773726,2.792657 z M 124.59793,23.412449 c 1.53161,0 2.7762,1.251966 2.7762,2.792657 0,1.54069 -1.24211,2.792656 -2.7762,2.792656 -1.53408,0 -2.77619,-1.251966 -2.77619,-2.792656 0,-1.540691 1.24458,-2.792657 2.77619,-2.792657 z m -1.17777,48.856552 c -1.53162,0 -2.77621,-1.251966 -2.77621,-2.792655 0,-1.540689 1.24459,-2.792657 2.77621,-2.792657 1.52914,0 2.7737,1.251968 2.7737,2.792657 0,1.540689 -1.24456,2.792655 -2.7737,2.792655 z"
   id="path1"
   style="stroke-width:2.48164" />
<g
   id="g9"
   transform="matrix(2.4743281,0,0,2.4889985,15.086619,17.448809)">
	<path
   fill="#ffffff"
   d="m 30.815,35.081 -1.824,0.168 -1.464,6.385 h -3.313 l 3.769,-16.321 h 3.313 l -1.632,7.057 1.536,-0.192 4.224,-6.864 h 3.625 l -5.209,8.185 1.513,8.137 h -3.48 z"
   id="path2" />
	
	
	
	
	
	
	
</g>
</svg>