<svg xmlns="http://www.w3.org/2000/svg" width="34.051" height="34"><path d="M3.284 10.81 8.2 15.505c-3.663 3.83-3.522 9.901.307 13.555a9.306 9.306 0 0 0 2.318 1.637 11.697 11.697 0 0 1-7.18-3.227C-1.062 22.972-1.235 15.5 3.27 10.797l.008.008a11.732 11.732 0 0 1 3.226-7.16c4.498-4.707 11.97-4.88 16.679-.375l-4.71 4.925c-3.829-3.653-9.905-3.516-13.56.313a9.375 9.375 0 0 0-1.63 2.302ZM13.89 23.72a9.087 9.087 0 0 0 1.713 2.072 11.16 11.16 0 0 1-5.761-4.729c-3.18-5.283-1.48-12.149 3.798-15.337l3.34 5.533c-4.29 2.586-5.676 8.165-3.09 12.461zm15.256 1.776a9.47 9.47 0 0 0 1.637-2.324 11.7 11.7 0 0 1-3.228 7.182c-4.504 4.708-11.972 4.877-16.68.381l4.712-4.936c3.831 3.663 9.898 3.52 13.56-.303zM25.546 4.9a9.61 9.61 0 0 0-2.323-1.637 11.77 11.77 0 0 1 7.182 3.227c4.713 4.506 4.875 11.971.38 16.683l-4.935-4.715c3.66-3.83 3.522-9.9-.303-13.558Z" style="fill:#121314;fill-rule:evenodd;stroke:none;stroke-width:1"/></svg>